<?xml version="1.0" standalone="no"?>
<!DOCTYPE svg PUBLIC "-//W3C//DTD SVG 20010904//EN"
 "http://www.w3.org/TR/2001/REC-SVG-20010904/DTD/svg10.dtd">
<svg version="1.0" xmlns="http://www.w3.org/2000/svg"
 width="600.000000pt" height="400.000000pt" viewBox="0 0 600.000000 400.000000"
 preserveAspectRatio="xMidYMid meet">
<g transform="translate(0.000000,400.000000) scale(0.100000,-0.100000)"
fill="#3c7f6d" stroke="none">
<path d="M1754 2799 c-22 -5 -65 -24 -95 -42 -52 -31 -68 -48 -324 -352 -532
-632 -650 -776 -666 -810 -37 -80 -12 -155 58 -175 26 -8 251 -10 737 -8 797
3 735 -5 702 90 -64 179 -79 210 -110 229 -29 18 -54 19 -338 19 -170 0 -318
4 -332 10 -35 13 -49 42 -36 76 17 44 488 601 520 614 35 14 66 6 85 -23 13
-21 88 -220 257 -682 102 -279 109 -292 161 -316 36 -16 66 -19 208 -19 132 0
169 3 178 14 10 12 -13 78 -112 328 -68 172 -181 457 -251 633 -70 177 -136
335 -147 353 -36 61 -80 72 -279 71 -96 -1 -193 -5 -216 -10z"/>
<path d="M2350 2795 c-19 -23 83 -279 123 -309 28 -20 41 -21 467 -26 413 -5
439 -6 459 -24 15 -14 21 -31 21 -63 0 -60 -21 -105 -66 -139 l-37 -29 -340
-5 -339 -5 -19 -24 c-25 -31 -24 -65 5 -126 27 -59 47 -82 310 -368 121 -132
217 -227 241 -240 37 -20 57 -22 249 -25 219 -4 256 0 256 22 0 8 -80 100
-177 206 -219 236 -213 228 -188 246 10 8 31 14 45 14 41 0 129 29 193 63 158
83 275 321 265 537 -7 140 -64 231 -177 284 -45 21 -60 21 -662 24 -552 2
-617 1 -629 -13z"/>
<path d="M4328 2800 c-151 -24 -300 -125 -366 -248 -18 -33 -70 -178 -118
-323 -47 -145 -95 -293 -107 -329 -17 -50 -22 -88 -22 -165 1 -89 4 -106 27
-151 36 -69 96 -118 177 -146 64 -22 76 -23 441 -22 l375 0 78 27 c144 50 243
138 301 268 26 59 207 612 227 692 27 109 -14 255 -89 318 -20 17 -64 43 -97
57 l-60 27 -355 2 c-195 1 -381 -3 -412 -7z m583 -355 c32 -17 49 -49 49 -92
0 -15 -34 -130 -77 -256 -72 -219 -79 -233 -122 -278 -37 -38 -56 -49 -99 -58
-81 -17 -464 -15 -507 3 -34 15 -65 59 -65 95 0 11 34 123 75 249 66 203 79
234 115 275 62 70 86 75 363 76 196 1 243 -2 268 -14z"/>
</g>
</svg>
